<svg width="222" height="119" viewBox="0 0 222 119" fill="none" xmlns="http://www.w3.org/2000/svg">
<circle cx="50" cy="31" r="25" fill="#DFF01E"/>
<path d="M47.0107 48.3428L32.6553 14.2119L37.6602 11.9902L48.7197 40.2617C49.4847 38.6341 50.2334 37.0391 50.9658 35.4766C51.2751 34.8255 51.5924 34.1419 51.918 33.4258C52.2598 32.7096 52.5853 32.0098 52.8945 31.3262C53.2201 30.6426 53.5293 29.9834 53.8223 29.3486C54.1315 28.7139 54.4082 28.1442 54.6523 27.6396C55.1243 26.6468 55.5394 25.6458 55.8975 24.6367C56.2718 23.6113 56.459 22.529 56.459 21.3896C56.459 20.5107 56.3369 19.6807 56.0928 18.8994C55.8486 18.1182 55.5068 17.3776 55.0674 16.6777C54.6442 15.9616 54.1315 15.2943 53.5293 14.6758C52.9271 14.041 52.2679 13.4469 51.5518 12.8936L55.6533 8.30371C56.3369 8.74316 56.9554 9.28841 57.5088 9.93945C58.0622 10.5905 58.5342 11.2904 58.9248 12.0391C59.3154 12.7878 59.6165 13.5609 59.8281 14.3584C60.056 15.1559 60.1699 15.9209 60.1699 16.6533C60.1699 18.0856 59.9339 19.4854 59.4619 20.8525C59.0062 22.2035 58.4691 23.5218 57.8506 24.8076C57.3786 25.7679 56.8659 26.8421 56.3125 28.0303C55.7591 29.2184 55.1813 30.4554 54.5791 31.7412C53.9932 33.0107 53.391 34.3047 52.7725 35.623C52.1702 36.9414 51.5924 38.2191 51.0391 39.4561C49.7207 42.3532 48.3779 45.3154 47.0107 48.3428ZM79.457 44.0947C79.2617 44.5179 79.0176 44.9167 78.7246 45.291C78.4316 45.6654 78.0898 45.999 77.6992 46.292C77.3249 46.585 76.9098 46.821 76.4541 47C76.0146 47.1628 75.5508 47.2441 75.0625 47.2441C73.7767 47.2441 72.849 46.8942 72.2793 46.1943C71.7259 45.4782 71.4492 44.5098 71.4492 43.2891V42.8496C71.1562 43.403 70.8226 43.9564 70.4482 44.5098C70.0902 45.0632 69.6751 45.5596 69.2031 45.999C68.7474 46.4385 68.2347 46.7965 67.665 47.0732C67.0954 47.3499 66.4606 47.4883 65.7607 47.4883C64.7028 47.4883 63.7669 47.2848 62.9531 46.8779C62.1393 46.471 61.4557 45.9258 60.9023 45.2422C60.349 44.5423 59.9339 43.7285 59.6572 42.8008C59.3805 41.873 59.2422 40.8883 59.2422 39.8467C59.2422 38.4307 59.4863 37.0228 59.9746 35.623C60.4792 34.207 61.179 32.9456 62.0742 31.8389C62.9857 30.7321 64.068 29.8369 65.3213 29.1533C66.5908 28.4535 67.9987 28.1035 69.5449 28.1035C70.1634 28.1035 70.7819 28.1605 71.4004 28.2744C72.0189 28.3883 72.6048 28.5755 73.1582 28.8359C73.7279 29.0801 74.2406 29.4056 74.6963 29.8125C75.1683 30.2194 75.5508 30.7158 75.8438 31.3018L72.2061 32.8398C72.0107 32.5306 71.7829 32.2376 71.5225 31.9609C71.2783 31.668 71.0016 31.4157 70.6924 31.2041C70.3994 30.9925 70.082 30.8216 69.7402 30.6914C69.3984 30.5612 69.0404 30.4961 68.666 30.4961C67.8197 30.4961 67.0628 30.7565 66.3955 31.2773C65.7445 31.7982 65.1829 32.4411 64.7109 33.2061C64.2552 33.971 63.9053 34.7848 63.6611 35.6475C63.417 36.5101 63.2949 37.2913 63.2949 37.9912C63.2949 38.6097 63.3519 39.3096 63.4658 40.0908C63.596 40.8558 63.8158 41.5801 64.125 42.2637C64.4342 42.9473 64.8411 43.5251 65.3457 43.9971C65.8503 44.4691 66.485 44.7051 67.25 44.7051C67.8522 44.7051 68.373 44.5749 68.8125 44.3145C69.252 44.0378 69.6263 43.6878 69.9355 43.2646C70.2448 42.8252 70.4971 42.3288 70.6924 41.7754C70.904 41.2057 71.0586 40.6279 71.1562 40.042C71.2702 39.4561 71.3434 38.8783 71.376 38.3086C71.4248 37.7227 71.4492 37.2018 71.4492 36.7461V35.0615L75.8926 33.499V43.4111C75.8926 43.7367 75.974 44.0378 76.1367 44.3145C76.2995 44.5749 76.5518 44.7051 76.8936 44.7051C77.3005 44.7051 77.6667 44.5586 77.9922 44.2656C78.334 43.9564 78.6025 43.6471 78.7979 43.3379L79.457 44.0947ZM98.6221 41.7021C98.0524 42.4346 97.4258 43.1507 96.7422 43.8506C96.0749 44.5342 95.3424 45.1445 94.5449 45.6816C93.7637 46.2188 92.9336 46.6582 92.0547 47C91.1758 47.3255 90.2643 47.4883 89.3203 47.4883C88.1159 47.4883 87.0091 47.2767 86 46.8535C84.9909 46.4303 84.1201 45.8281 83.3877 45.0469C82.6553 44.2656 82.0856 43.3216 81.6787 42.2148C81.2718 41.1081 81.0684 39.8711 81.0684 38.5039C81.0684 37.0716 81.3532 35.7126 81.9229 34.4268C82.5088 33.141 83.2819 32.0179 84.2422 31.0576C85.2188 30.0811 86.3499 29.3161 87.6357 28.7627C88.9215 28.193 90.2725 27.9082 91.6885 27.9082C92.2419 27.9082 92.7952 27.9652 93.3486 28.0791C93.9183 28.1768 94.4554 28.3395 94.96 28.5674C95.4808 28.779 95.9528 29.0719 96.376 29.4463C96.8154 29.8044 97.1816 30.2357 97.4746 30.7402L93.9834 32.6445C93.8206 32.2539 93.5846 31.9121 93.2754 31.6191C92.9824 31.3262 92.6488 31.082 92.2744 30.8867C91.9001 30.6914 91.5013 30.5449 91.0781 30.4473C90.6712 30.3496 90.2725 30.3008 89.8818 30.3008C89.1006 30.3008 88.4007 30.4798 87.7822 30.8379C87.1637 31.1797 86.6348 31.6354 86.1953 32.2051C85.7721 32.7585 85.4466 33.3932 85.2188 34.1094C84.9909 34.8092 84.877 35.5254 84.877 36.2578C84.877 37.6576 85.0479 38.8945 85.3896 39.9688C85.7314 41.043 86.2035 41.9463 86.8057 42.6787C87.4079 43.4111 88.1159 43.9645 88.9297 44.3389C89.7435 44.7132 90.6305 44.9004 91.5908 44.9004C92.1442 44.9004 92.7139 44.762 93.2998 44.4854C93.8857 44.2087 94.4473 43.8669 94.9844 43.46C95.5378 43.0368 96.0586 42.5892 96.5469 42.1172C97.0514 41.6452 97.499 41.222 97.8896 40.8477L98.6221 41.7021ZM121.01 44.0947C120.814 44.5179 120.57 44.9167 120.277 45.291C119.984 45.6654 119.643 45.999 119.252 46.292C118.878 46.585 118.463 46.821 118.007 47C117.567 47.1628 117.104 47.2441 116.615 47.2441C115.329 47.2441 114.402 46.8942 113.832 46.1943C113.279 45.4782 113.002 44.5098 113.002 43.2891V42.8496C112.709 43.403 112.375 43.9564 112.001 44.5098C111.643 45.0632 111.228 45.5596 110.756 45.999C110.3 46.4385 109.787 46.7965 109.218 47.0732C108.648 47.3499 108.013 47.4883 107.313 47.4883C106.256 47.4883 105.32 47.2848 104.506 46.8779C103.692 46.471 103.008 45.9258 102.455 45.2422C101.902 44.5423 101.487 43.7285 101.21 42.8008C100.933 41.873 100.795 40.8883 100.795 39.8467C100.795 38.4307 101.039 37.0228 101.527 35.623C102.032 34.207 102.732 32.9456 103.627 31.8389C104.538 30.7321 105.621 29.8369 106.874 29.1533C108.144 28.4535 109.551 28.1035 111.098 28.1035C111.716 28.1035 112.335 28.1605 112.953 28.2744C113.572 28.3883 114.158 28.5755 114.711 28.8359C115.281 29.0801 115.793 29.4056 116.249 29.8125C116.721 30.2194 117.104 30.7158 117.396 31.3018L113.759 32.8398C113.563 32.5306 113.336 32.2376 113.075 31.9609C112.831 31.668 112.554 31.4157 112.245 31.2041C111.952 30.9925 111.635 30.8216 111.293 30.6914C110.951 30.5612 110.593 30.4961 110.219 30.4961C109.372 30.4961 108.616 30.7565 107.948 31.2773C107.297 31.7982 106.736 32.4411 106.264 33.2061C105.808 33.971 105.458 34.7848 105.214 35.6475C104.97 36.5101 104.848 37.2913 104.848 37.9912C104.848 38.6097 104.905 39.3096 105.019 40.0908C105.149 40.8558 105.368 41.5801 105.678 42.2637C105.987 42.9473 106.394 43.5251 106.898 43.9971C107.403 44.4691 108.038 44.7051 108.803 44.7051C109.405 44.7051 109.926 44.5749 110.365 44.3145C110.805 44.0378 111.179 43.6878 111.488 43.2646C111.798 42.8252 112.05 42.3288 112.245 41.7754C112.457 41.2057 112.611 40.6279 112.709 40.042C112.823 39.4561 112.896 38.8783 112.929 38.3086C112.978 37.7227 113.002 37.2018 113.002 36.7461V35.0615L117.445 33.499V43.4111C117.445 43.7367 117.527 44.0378 117.689 44.3145C117.852 44.5749 118.104 44.7051 118.446 44.7051C118.853 44.7051 119.219 44.5586 119.545 44.2656C119.887 43.9564 120.155 43.6471 120.351 43.3379L121.01 44.0947ZM132.631 44.1436C132.257 44.9411 131.825 45.5514 131.337 45.9746C130.849 46.3978 130.368 46.707 129.896 46.9023C129.359 47.1302 128.806 47.2604 128.236 47.293C127.504 47.293 126.902 47.179 126.43 46.9512C125.974 46.7233 125.608 46.4222 125.331 46.0479C125.071 45.6735 124.883 45.2503 124.77 44.7783C124.672 44.3063 124.623 43.8262 124.623 43.3379V30.5449H122.035L123.085 28.1035H124.623V19.4609L129.091 17.8984V28.1035H133.729L132.729 30.5449H129.091V43.46C129.091 43.8506 129.18 44.1598 129.359 44.3877C129.538 44.6156 129.766 44.7376 130.043 44.7539C130.32 44.7539 130.629 44.6481 130.971 44.4365C131.312 44.2249 131.646 43.8831 131.972 43.4111L132.631 44.1436ZM141.859 15.1396L140.565 24.0508L138.173 24.8076L136.708 16.8975L141.859 15.1396ZM145.229 44.1436C144.854 44.9411 144.415 45.5514 143.91 45.9746C143.422 46.3978 142.95 46.707 142.494 46.9023C141.957 47.1302 141.412 47.2604 140.858 47.293C140.142 47.293 139.548 47.179 139.076 46.9512C138.604 46.7233 138.23 46.4222 137.953 46.0479C137.676 45.6735 137.481 45.2503 137.367 44.7783C137.27 44.3063 137.221 43.8262 137.221 43.3379V29.6416L141.713 28.1035V43.46C141.713 43.8506 141.802 44.1598 141.981 44.3877C142.16 44.6156 142.388 44.7376 142.665 44.7539C142.958 44.7539 143.267 44.6481 143.593 44.4365C143.935 44.2249 144.26 43.8831 144.569 43.4111L145.229 44.1436ZM155.702 47.5615C154.498 47.5615 153.367 47.3499 152.309 46.9268C151.267 46.4873 150.355 45.8851 149.574 45.1201C148.809 44.3551 148.199 43.46 147.743 42.4346C147.304 41.3929 147.084 40.2617 147.084 39.041C147.084 37.6576 147.312 36.3636 147.768 35.1592C148.223 33.9385 148.85 32.8398 149.647 31.8633C150.461 30.8867 151.413 30.0404 152.504 29.3242C153.611 28.6081 154.807 28.0465 156.093 27.6396L156.801 28.4941C156.068 29.0312 155.385 29.6497 154.75 30.3496C154.115 31.0332 153.562 31.7819 153.09 32.5957C152.618 33.3932 152.243 34.2396 151.967 35.1348C151.69 36.0137 151.552 36.917 151.552 37.8447C151.552 38.626 151.666 39.4479 151.894 40.3105C152.121 41.1732 152.463 41.9626 152.919 42.6787C153.375 43.3949 153.944 43.9889 154.628 44.4609C155.328 44.9167 156.133 45.1445 157.045 45.1445C157.859 45.1445 158.559 44.998 159.145 44.7051C159.747 44.4121 160.243 44.0133 160.634 43.5088C161.024 43.0042 161.317 42.4183 161.513 41.751C161.708 41.0674 161.806 40.3512 161.806 39.6025C161.806 38.7236 161.635 37.8285 161.293 36.917C160.951 35.9893 160.479 35.1348 159.877 34.3535C159.291 33.5723 158.599 32.9212 157.802 32.4004C157.004 31.8796 156.15 31.5785 155.238 31.4971C155.808 30.846 156.435 30.2438 157.118 29.6904C157.802 29.137 158.493 28.6081 159.193 28.1035C160.137 28.4128 160.967 28.8685 161.684 29.4707C162.416 30.0729 163.026 30.7646 163.515 31.5459C164.019 32.3271 164.402 33.1816 164.662 34.1094C164.923 35.0208 165.053 35.9486 165.053 36.8926C165.053 38.1784 164.825 39.4561 164.369 40.7256C163.93 41.9951 163.295 43.1426 162.465 44.168C161.651 45.1771 160.666 45.999 159.511 46.6338C158.371 47.2523 157.102 47.5615 155.702 47.5615ZM189.345 44.1436C189.149 44.5667 188.897 44.9655 188.588 45.3398C188.279 45.7142 187.929 46.0479 187.538 46.3408C187.164 46.6338 186.757 46.8617 186.317 47.0244C185.878 47.2035 185.422 47.293 184.95 47.293C183.664 47.293 182.729 46.943 182.143 46.2432C181.573 45.527 181.288 44.5586 181.288 43.3379V33.4014C181.288 33.2874 181.28 33.1572 181.264 33.0107C181.264 32.848 181.239 32.7015 181.19 32.5713C181.142 32.4248 181.076 32.3027 180.995 32.2051C180.914 32.1074 180.8 32.0586 180.653 32.0586C180.198 32.0586 179.734 32.3353 179.262 32.8887C178.806 33.4421 178.358 34.1582 177.919 35.0371C177.496 35.916 177.097 36.9007 176.723 37.9912C176.365 39.0817 176.047 40.1641 175.771 41.2383C175.494 42.2962 175.274 43.2891 175.111 44.2168C174.965 45.1445 174.892 45.8851 174.892 46.4385L170.448 48.001V31.5947C170.448 31.2692 170.367 30.9762 170.204 30.7158C170.041 30.4391 169.789 30.3008 169.447 30.3008C169.04 30.3008 168.666 30.4554 168.324 30.7646C167.999 31.0576 167.738 31.3506 167.543 31.6436L166.884 30.9111C167.079 30.5042 167.323 30.1136 167.616 29.7393C167.925 29.3486 168.267 29.0068 168.642 28.7139C169.032 28.4209 169.447 28.193 169.887 28.0303C170.342 27.8512 170.814 27.7617 171.303 27.7617C172.572 27.7617 173.484 28.1198 174.037 28.8359C174.607 29.5358 174.892 30.488 174.892 31.6924V39.6514C175.038 38.984 175.233 38.2272 175.478 37.3809C175.738 36.5182 176.047 35.6475 176.405 34.7686C176.763 33.8896 177.162 33.0352 177.602 32.2051C178.057 31.3587 178.554 30.61 179.091 29.959C179.628 29.2917 180.214 28.7627 180.849 28.3721C181.483 27.9652 182.167 27.7617 182.899 27.7617C183.664 27.7617 184.242 27.9326 184.633 28.2744C185.023 28.5999 185.3 29.0231 185.463 29.5439C185.642 30.0485 185.74 30.61 185.756 31.2285C185.772 31.847 185.78 32.4411 185.78 33.0107V43.46C185.78 43.7855 185.862 44.0866 186.024 44.3633C186.187 44.6237 186.439 44.7539 186.781 44.7539C187.156 44.7539 187.506 44.6074 187.831 44.3145C188.173 44.0052 188.441 43.7041 188.637 43.4111L189.345 44.1436ZM80.8975 94.9404C80.8975 96.5843 80.5557 98.0817 79.8721 99.4326C79.2048 100.784 78.3014 102.004 77.1621 103.095C76.0391 104.169 74.7451 105.105 73.2803 105.902C71.8317 106.7 70.318 107.367 68.7393 107.904C67.1768 108.458 65.6061 108.873 64.0273 109.149C62.4648 109.442 61.0163 109.613 59.6816 109.662L59.3398 108.441C60.4141 108.214 61.5534 107.912 62.7578 107.538C63.9622 107.18 65.1504 106.732 66.3223 106.195C67.5104 105.674 68.6335 105.064 69.6914 104.364C70.7656 103.664 71.7096 102.867 72.5234 101.972C73.3372 101.06 73.9801 100.059 74.4521 98.9688C74.9404 97.862 75.1846 96.6413 75.1846 95.3066C75.1846 94.2975 74.9486 93.3861 74.4766 92.5723C74.0208 91.7422 73.4186 91.0423 72.6699 90.4727C71.9375 89.8867 71.0993 89.4391 70.1553 89.1299C69.2275 88.8044 68.2917 88.6416 67.3477 88.6416C66.2246 88.6416 65.1178 88.7799 64.0273 89.0566C62.9368 89.3171 61.8626 89.6507 60.8047 90.0576L60.3896 89.0566C61.1221 88.7311 61.8952 88.3405 62.709 87.8848C63.5391 87.429 64.3447 86.9245 65.126 86.3711C65.9235 85.8014 66.6803 85.1829 67.3965 84.5156C68.1126 83.832 68.7393 83.1077 69.2764 82.3428C69.8298 81.5615 70.2692 80.7477 70.5947 79.9014C70.9202 79.0387 71.083 78.1354 71.083 77.1914C71.083 76.5892 70.9854 76.0439 70.79 75.5557C70.611 75.0511 70.3424 74.6198 69.9844 74.2617C69.6263 73.8874 69.195 73.6025 68.6904 73.4072C68.2021 73.1956 67.6569 73.0898 67.0547 73.0898C66.0781 73.0898 65.2155 73.3014 64.4668 73.7246C63.7344 74.1478 63.0915 74.7093 62.5381 75.4092C62.001 76.109 61.5452 76.9147 61.1709 77.8262C60.8128 78.7214 60.5199 79.641 60.292 80.585C60.0804 81.529 59.9258 82.4648 59.8281 83.3926C59.7305 84.304 59.6816 85.126 59.6816 85.8584V104.706L54.6523 106.488V88.5439C54.6523 86.9652 54.8314 85.4271 55.1895 83.9297C55.5475 82.4323 56.0602 81.0163 56.7275 79.6816C57.4111 78.3307 58.2331 77.0938 59.1934 75.9707C60.1699 74.8477 61.2604 73.8874 62.4648 73.0898C63.6855 72.276 65.012 71.6413 66.4443 71.1855C67.8929 70.7298 69.4229 70.502 71.0342 70.502C71.7666 70.502 72.4746 70.5996 73.1582 70.7949C73.8418 70.9902 74.4359 71.2913 74.9404 71.6982C75.4613 72.1051 75.8763 72.6097 76.1855 73.2119C76.4948 73.8141 76.6494 74.514 76.6494 75.3115C76.6494 76.1742 76.4704 77.0286 76.1123 77.875C75.7705 78.7051 75.3066 79.5189 74.7207 80.3164C74.1348 81.1139 73.4674 81.8789 72.7188 82.6113C71.9701 83.3275 71.1888 83.9948 70.375 84.6133C69.5775 85.2318 68.7799 85.7852 67.9824 86.2734C67.1849 86.7617 66.4525 87.1686 65.7852 87.4941C67.4453 87.1035 69.1462 86.9082 70.8877 86.9082C72.1572 86.9082 73.3861 87.0628 74.5742 87.3721C75.7786 87.665 76.8447 88.137 77.7725 88.7881C78.7165 89.4229 79.4733 90.2529 80.043 91.2783C80.6126 92.2874 80.8975 93.5081 80.8975 94.9404ZM104.677 103.144C104.302 103.941 103.863 104.551 103.358 104.975C102.854 105.398 102.374 105.707 101.918 105.902C101.381 106.13 100.836 106.26 100.282 106.293C99.5498 106.293 98.9476 106.179 98.4756 105.951C98.0199 105.723 97.6536 105.422 97.377 105.048C97.1003 104.674 96.9049 104.25 96.791 103.778C96.6934 103.306 96.6445 102.826 96.6445 102.338V94.5498C96.5143 95.1357 96.3434 95.8356 96.1318 96.6494C95.9365 97.4632 95.6924 98.3177 95.3994 99.2129C95.1064 100.092 94.7646 100.971 94.374 101.85C93.9834 102.712 93.5277 103.485 93.0068 104.169C92.5023 104.853 91.9245 105.414 91.2734 105.854C90.6387 106.277 89.9225 106.488 89.125 106.488C88.4577 106.488 87.9287 106.358 87.5381 106.098C87.1637 105.854 86.8789 105.504 86.6836 105.048C86.5046 104.576 86.3906 104.022 86.3418 103.388C86.3092 102.737 86.293 102.021 86.293 101.239V90.6436C86.293 90.2529 86.2035 89.9437 86.0244 89.7158C85.8454 89.488 85.6094 89.374 85.3164 89.374C85.0397 89.3577 84.7305 89.4554 84.3887 89.667C84.0469 89.8786 83.7132 90.2204 83.3877 90.6924L82.7285 89.96C83.1029 89.1787 83.5342 88.5765 84.0225 88.1533C84.5107 87.7139 84.9909 87.3965 85.4629 87.2012C86 86.9733 86.5534 86.8431 87.123 86.8105C87.8555 86.8105 88.4495 86.9245 88.9053 87.1523C89.3773 87.3802 89.7435 87.6813 90.0039 88.0557C90.2806 88.4137 90.4678 88.8288 90.5654 89.3008C90.6794 89.7728 90.7363 90.2529 90.7363 90.7412V100.849C90.7363 101.483 90.8503 101.898 91.0781 102.094C91.306 102.289 91.599 102.265 91.957 102.021C92.3314 101.76 92.7383 101.296 93.1777 100.629C93.6335 99.9453 94.0892 99.0501 94.5449 97.9434C94.8379 96.8854 95.1227 95.7949 95.3994 94.6719C95.6273 93.7116 95.8551 92.6536 96.083 91.498C96.3271 90.3424 96.5143 89.2275 96.6445 88.1533L101.137 86.5908V102.46C101.137 102.851 101.226 103.16 101.405 103.388C101.584 103.616 101.812 103.738 102.089 103.754C102.366 103.754 102.667 103.648 102.992 103.437C103.334 103.225 103.668 102.883 103.993 102.411L104.677 103.144ZM126.942 103.095C126.747 103.518 126.495 103.917 126.186 104.291C125.876 104.665 125.535 104.999 125.16 105.292C124.786 105.585 124.371 105.821 123.915 106C123.476 106.163 123.02 106.244 122.548 106.244C121.262 106.244 120.326 105.894 119.74 105.194C119.171 104.478 118.886 103.51 118.886 102.289V101.85C118.609 102.403 118.292 102.956 117.934 103.51C117.576 104.063 117.16 104.56 116.688 104.999C116.233 105.438 115.712 105.797 115.126 106.073C114.556 106.35 113.913 106.488 113.197 106.488C112.107 106.488 111.146 106.277 110.316 105.854C109.503 105.414 108.819 104.836 108.266 104.12C107.712 103.388 107.289 102.541 106.996 101.581C106.719 100.621 106.581 99.6117 106.581 98.5537C106.581 97.1865 106.793 95.8112 107.216 94.4277C107.639 93.0443 108.257 91.791 109.071 90.668C109.885 89.5449 110.886 88.6335 112.074 87.9336C113.262 87.2174 114.621 86.8594 116.151 86.8594C117.095 86.8594 118.007 87.0872 118.886 87.543V72.5527L123.402 70.9902V102.411C123.402 102.737 123.476 103.038 123.622 103.314C123.785 103.575 124.045 103.705 124.403 103.705C124.778 103.705 125.128 103.559 125.453 103.266C125.779 102.956 126.039 102.647 126.234 102.338L126.942 103.095ZM118.886 95.7461V90.5459C118.511 90.1715 118.088 89.8623 117.616 89.6182C117.16 89.374 116.656 89.252 116.103 89.252C115.142 89.252 114.328 89.5124 113.661 90.0332C112.994 90.554 112.449 91.2051 112.025 91.9863C111.602 92.7676 111.293 93.6139 111.098 94.5254C110.902 95.4206 110.805 96.2588 110.805 97.04C110.805 97.6585 110.862 98.3584 110.976 99.1396C111.106 99.9046 111.317 100.629 111.61 101.312C111.92 101.98 112.318 102.549 112.807 103.021C113.311 103.477 113.938 103.705 114.687 103.705C115.289 103.705 115.81 103.575 116.249 103.314C116.705 103.038 117.087 102.688 117.396 102.265C117.706 101.825 117.958 101.329 118.153 100.775C118.349 100.206 118.495 99.6279 118.593 99.042C118.707 98.4561 118.78 97.8783 118.812 97.3086C118.861 96.7227 118.886 96.2018 118.886 95.7461ZM149.208 103.095C149.013 103.518 148.76 103.917 148.451 104.291C148.142 104.665 147.8 104.999 147.426 105.292C147.051 105.585 146.636 105.821 146.181 106C145.741 106.163 145.285 106.244 144.813 106.244C143.528 106.244 142.592 105.894 142.006 105.194C141.436 104.478 141.151 103.51 141.151 102.289V101.85C140.875 102.403 140.557 102.956 140.199 103.51C139.841 104.063 139.426 104.56 138.954 104.999C138.498 105.438 137.978 105.797 137.392 106.073C136.822 106.35 136.179 106.488 135.463 106.488C134.372 106.488 133.412 106.277 132.582 105.854C131.768 105.414 131.085 104.836 130.531 104.12C129.978 103.388 129.555 102.541 129.262 101.581C128.985 100.621 128.847 99.6117 128.847 98.5537C128.847 97.1865 129.058 95.8112 129.481 94.4277C129.905 93.0443 130.523 91.791 131.337 90.668C132.151 89.5449 133.152 88.6335 134.34 87.9336C135.528 87.2174 136.887 86.8594 138.417 86.8594C139.361 86.8594 140.272 87.0872 141.151 87.543V72.5527L145.668 70.9902V102.411C145.668 102.737 145.741 103.038 145.888 103.314C146.05 103.575 146.311 103.705 146.669 103.705C147.043 103.705 147.393 103.559 147.719 103.266C148.044 102.956 148.305 102.647 148.5 102.338L149.208 103.095ZM141.151 95.7461V90.5459C140.777 90.1715 140.354 89.8623 139.882 89.6182C139.426 89.374 138.922 89.252 138.368 89.252C137.408 89.252 136.594 89.5124 135.927 90.0332C135.259 90.554 134.714 91.2051 134.291 91.9863C133.868 92.7676 133.559 93.6139 133.363 94.5254C133.168 95.4206 133.07 96.2588 133.07 97.04C133.07 97.6585 133.127 98.3584 133.241 99.1396C133.371 99.9046 133.583 100.629 133.876 101.312C134.185 101.98 134.584 102.549 135.072 103.021C135.577 103.477 136.203 103.705 136.952 103.705C137.554 103.705 138.075 103.575 138.515 103.314C138.97 103.038 139.353 102.688 139.662 102.265C139.971 101.825 140.224 101.329 140.419 100.775C140.614 100.206 140.761 99.6279 140.858 99.042C140.972 98.4561 141.046 97.8783 141.078 97.3086C141.127 96.7227 141.151 96.2018 141.151 95.7461ZM168.275 103.998C168.275 105.17 168.129 106.309 167.836 107.416C167.543 108.539 167.136 109.589 166.615 110.565C166.111 111.558 165.508 112.462 164.809 113.275C164.109 114.105 163.344 114.813 162.514 115.399C161.7 116.002 160.837 116.465 159.926 116.791C159.014 117.133 158.095 117.304 157.167 117.304C156.467 117.304 155.808 117.182 155.189 116.938C154.571 116.71 153.985 116.4 153.432 116.01L156.166 112.543C156.41 112.738 156.679 112.942 156.972 113.153C157.281 113.365 157.598 113.552 157.924 113.715C158.249 113.894 158.583 114.032 158.925 114.13C159.283 114.244 159.633 114.301 159.975 114.301C160.593 114.301 161.114 114.114 161.537 113.739C161.977 113.365 162.335 112.885 162.611 112.299C162.888 111.713 163.108 111.046 163.271 110.297C163.433 109.564 163.547 108.832 163.612 108.1C163.694 107.367 163.743 106.667 163.759 106C163.775 105.349 163.783 104.812 163.783 104.389V94.5498C163.653 95.1195 163.482 95.8112 163.271 96.625C163.059 97.4225 162.79 98.2689 162.465 99.1641C162.156 100.043 161.798 100.922 161.391 101.801C160.984 102.663 160.52 103.445 159.999 104.145C159.494 104.844 158.925 105.414 158.29 105.854C157.672 106.277 156.996 106.488 156.264 106.488C155.515 106.488 154.945 106.326 154.555 106C154.18 105.658 153.904 105.235 153.725 104.73C153.562 104.21 153.472 103.64 153.456 103.021C153.44 102.403 153.432 101.809 153.432 101.239V90.6924C153.432 90.3994 153.35 90.1146 153.188 89.8379C153.025 89.5449 152.772 89.3984 152.431 89.3984C152.024 89.3984 151.649 89.5531 151.308 89.8623C150.982 90.1553 150.722 90.4482 150.526 90.7412L149.867 90.0088C150.062 89.6019 150.307 89.2113 150.6 88.8369C150.909 88.4463 151.251 88.1045 151.625 87.8115C152.016 87.5186 152.431 87.2907 152.87 87.1279C153.326 86.9489 153.798 86.8594 154.286 86.8594C155.556 86.8594 156.467 87.2174 157.021 87.9336C157.59 88.6335 157.875 89.5856 157.875 90.79V100.849C157.875 100.946 157.875 101.076 157.875 101.239C157.891 101.386 157.924 101.532 157.973 101.679C158.021 101.809 158.095 101.931 158.192 102.045C158.29 102.143 158.42 102.191 158.583 102.191C158.892 102.191 159.21 102.012 159.535 101.654C159.861 101.296 160.17 100.881 160.463 100.409C160.756 99.9372 161.008 99.4652 161.22 98.9932C161.431 98.5212 161.586 98.1712 161.684 97.9434C161.977 97.2435 162.237 96.4785 162.465 95.6484C162.693 94.8184 162.888 93.972 163.051 93.1094C163.23 92.2305 163.376 91.3678 163.49 90.5215C163.62 89.6589 163.718 88.8369 163.783 88.0557L168.275 86.4932V103.998Z" fill="#1D1AC1"/>
</svg>
